HIERARCHY
ROOT Hips
{
	OFFSET 0.000000 0.000000 0.000000
	CHANNELS 6 Xposition Yposition Zposition Zrotation Yrotation Xrotation 
	JOINT LHipJoint
	{
		OFFSET 0.000000 0.000000 0.000000
		CHANNELS 3 Zrotation Yrotation Xrotation
		JOINT LeftUpLeg
		{
			OFFSET 1.363060 -1.794630 0.839290
			CHANNELS 3 Zrotation Yrotation Xrotation
			JOINT LeftLeg
			{
				OFFSET 2.448110 -6.726130 0.000000
				CHANNELS 3 Zrotation Yrotation Xrotation
				JOINT LeftFoot
				{
					OFFSET 2.562200 -7.039590 0.000000
					CHANNELS 3 Zrotation Yrotation Xrotation
					JOINT LeftToeBase
					{
						OFFSET 0.157640 -0.433110 2.322550
						CHANNELS 3 Zrotation Yrotation Xrotation
						End Site
						{
							OFFSET 0.000000 0.000000 0.000000
						}
					}
				}
			}
		}
	}
	JOINT RHipJoint
	{
		OFFSET 0.000000 0.000000 0.000000
		CHANNELS 3 Zrotation Yrotation Xrotation
		JOINT RightUpLeg
		{
			OFFSET -1.305520 -1.794630 0.839290
			CHANNELS 3 Zrotation Yrotation Xrotation
			JOINT RightLeg
			{
				OFFSET -2.542530 -6.985550 0.000000
				CHANNELS 3 Zrotation Yrotation Xrotation
				JOINT RightFoot
				{
					OFFSET -2.568260 -7.056230 0.000000
					CHANNELS 3 Zrotation Yrotation Xrotation
					JOINT RightToeBase
					{
						OFFSET -0.164730 -0.452590 2.363150
						CHANNELS 3 Zrotation Yrotation Xrotation
						End Site
						{
							OFFSET 0.000000 0.000000 0.000000
						}
					}
				}
			}
		}
	}
	JOINT LowerBack
	{
		OFFSET 0.000000 0.000000 0.000000
		CHANNELS 3 Zrotation Yrotation Xrotation
		JOINT Spine
		{
			OFFSET 0.028270 2.035590 -0.193380
			CHANNELS 3 Zrotation Yrotation Xrotation
			JOINT Spine1
			{
				OFFSET 0.056720 2.048850 -0.042750
				CHANNELS 3 Zrotation Yrotation Xrotation
				JOINT Neck
				{
					OFFSET 0.000000 0.000000 0.000000
					CHANNELS 3 Zrotation Yrotation Xrotation
					JOINT Neck1
					{
						OFFSET -0.054170 1.746240 0.172020
						CHANNELS 3 Zrotation Yrotation Xrotation
						JOINT Head
						{
							OFFSET 0.104070 1.761360 -0.123970
							CHANNELS 3 Zrotation Yrotation Xrotation
							End Site
							{
								OFFSET 0.000000 0.000000 0.000000
							}
						}
					}
				}
				JOINT LeftShoulder
				{
					OFFSET 0.000000 0.000000 0.000000
					CHANNELS 3 Zrotation Yrotation Xrotation
					JOINT LeftArm
					{
						OFFSET 3.362410 1.200890 -0.311210
						CHANNELS 3 Zrotation Yrotation Xrotation
						JOINT LeftForeArm
						{
							OFFSET 4.983000 -0.000000 -0.000000
							CHANNELS 3 Zrotation Yrotation Xrotation
							JOINT LeftHand
							{
								OFFSET 3.483560 -0.000000 -0.000000
								CHANNELS 3 Zrotation Yrotation Xrotation
								JOINT LeftFingerBase
								{
									OFFSET 0.000000 0.000000 0.000000
									CHANNELS 3 Zrotation Yrotation Xrotation
									JOINT LeftHandIndex1
									{
										OFFSET 0.715260 -0.000000 -0.000000
										CHANNELS 3 Zrotation Yrotation Xrotation
										End Site
										{
											OFFSET 0.000000 0.000000 0.000000
										}
									}
								}
								JOINT LThumb
								{
									OFFSET 0.000000 0.000000 0.000000
									CHANNELS 3 Zrotation Yrotation Xrotation
									End Site
									{
										OFFSET 0.000000 0.000000 0.000000
									}
								}
							}
						}
					}
				}
				JOINT RightShoulder
				{
					OFFSET 0.000000 0.000000 0.000000
					CHANNELS 3 Zrotation Yrotation Xrotation
					JOINT RightArm
					{
						OFFSET -3.136600 1.374050 -0.404650
						CHANNELS 3 Zrotation Yrotation Xrotation
						JOINT RightForeArm
						{
							OFFSET -5.241900 -0.000000 -0.000000
							CHANNELS 3 Zrotation Yrotation Xrotation
							JOINT RightHand
							{
								OFFSET -3.444170 -0.000000 -0.000000
								CHANNELS 3 Zrotation Yrotation Xrotation
								JOINT RightFingerBase
								{
									OFFSET 0.000000 0.000000 0.000000
									CHANNELS 3 Zrotation Yrotation Xrotation
									JOINT RightHandIndex1
									{
										OFFSET -0.622530 -0.000000 -0.000000
										CHANNELS 3 Zrotation Yrotation Xrotation
										End Site
										{
											OFFSET 0.000000 0.000000 0.000000
										}
									}
								}
								JOINT RThumb
								{
									OFFSET 0.000000 0.000000 0.000000
									CHANNELS 3 Zrotation Yrotation Xrotation
									End Site
									{
										OFFSET 0.000000 0.000000 0.000000
									}
								}
							}
						}
					}
				}
			}
		}
	}
}
MOTION
Frames: 6
Frame Time: 0.008333
0.190898 17.238073 -1.431715 3.115453 10.365836 19.420042 -3.171544 -1.541851 0.240124 -17.411177 1.392105 -5.007746 -0.576505 6.560440 17.854939 2.908552 -14.829967 -9.310121 1.374482 -7.370321 -20.838693 -0.126540 2.616602 -4.566239 14.940986 0.253013 -47.889191 1.091955 -6.787265 15.283020 -1.157670 6.157292 -3.170362 -1.066740 6.561706 -18.424760 -1.913223 -2.802094 -7.575908 1.202381 -3.706175 -9.747933 -0.119497 -1.772182 -0.022028 -2.024108 -1.983895 -8.615551 4.725288 -2.943038 11.341501 0.448033 -1.195881 3.775680 12.894509 7.077255 -0.898870 -93.674058 -13.566334 35.619560 25.874460 -43.735991 -9.949453 0.041159 -0.501289 -10.882286 23.722884 -17.540122 -7.334933 -7.125000 0.000000 0.000000 -2.705253 11.536636 2.111910 -13.277348 -6.661682 1.650062 103.824860 -23.553434 -40.118554 -3.270073 11.737815 -0.073739 -1.715932 -0.246360 39.524794 -16.469343 -34.786911 8.625040 7.125000 0.000000 0.000000 21.449729 -63.373270 -9.789551
0.189326 17.225071 -1.301809 3.085274 10.522435 19.412412 -3.154860 -1.502120 0.266677 -17.236501 1.154478 -4.535912 -0.564651 6.579668 17.930239 2.889466 -14.841294 -9.144607 1.498826 -7.732062 -21.903723 -0.131659 2.588004 -4.554585 14.652779 0.692000 -47.608058 1.085065 -6.894048 15.546238 -1.015661 5.011097 -3.038258 -1.596933 7.756982 -22.096000 -1.792528 -2.841781 -7.589428 1.246533 -3.775041 -9.754107 -0.101416 -1.805228 -0.015412 -1.962417 -1.998516 -8.710527 4.551202 -2.939288 11.335720 0.356821 -1.198214 3.787092 12.901474 7.081012 -0.899883 -93.737198 -13.554579 35.603431 26.224943 -44.039897 -10.161532 0.041906 -0.494974 -10.965816 23.760840 -17.651616 -7.396493 -7.125000 0.000000 0.000000 -2.690268 11.404779 2.107556 -13.257934 -6.651070 1.646786 103.750608 -23.614864 -40.415548 -3.276989 11.715168 -0.074370 -1.709443 -0.240636 39.737205 -16.325355 -34.759649 8.539388 7.125000 0.000000 0.000000 21.577054 -63.313831 -9.820053
0.185166 17.218175 -1.170847 3.066182 10.684023 19.375459 -3.134541 -1.462399 0.287587 -17.052330 0.891496 -4.093316 -0.535658 6.638756 18.119837 2.868943 -15.096153 -8.746935 1.443244 -7.593903 -21.487705 -0.129957 2.555000 -4.533169 14.154662 1.363280 -47.097040 1.084766 -6.992126 15.785534 -0.801667 3.356026 -2.603109 -2.470789 9.667136 -27.996133 -1.716611 -2.889461 -7.565609 1.292563 -3.848383 -9.763274 -0.057539 -1.836794 -0.041086 -1.927439 -2.010237 -8.712011 4.399852 -2.935890 11.283702 0.282268 -1.202890 3.755953 12.906012 7.083079 -0.897948 -93.787585 -13.452955 35.590204 26.619721 -44.378167 -10.401455 0.042928 -0.486982 -11.057199 23.784866 -17.741363 -7.444955 -7.125000 0.000000 0.000000 -2.683413 11.296164 2.108194 -13.240168 -6.640922 1.644091 103.672549 -23.667842 -40.901968 -3.272308 11.655636 -0.073711 -1.699856 -0.227243 40.099507 -16.154591 -34.651944 8.421846 7.125000 0.000000 0.000000 21.659790 -63.177585 -9.790455
0.178729 17.210546 -1.037068 3.037902 10.948323 19.293893 -3.108797 -1.415656 0.310018 -16.814882 0.556663 -3.569805 -0.512882 6.676153 18.258679 2.833408 -15.526493 -8.060219 1.276725 -7.136392 -20.130473 -0.129640 2.519753 -4.512688 13.665041 2.033993 -46.563188 1.060322 -7.152756 16.193982 -0.613603 1.956334 -2.378692 -3.048179 10.746653 -31.457752 -1.652202 -2.978072 -7.565844 1.351989 -3.970696 -9.747621 0.004660 -1.892682 -0.001985 -1.960278 -1.989799 -8.630256 4.323560 -2.897085 11.194622 0.258596 -1.190978 3.686708 12.914975 7.084269 -0.890481 -93.838264 -13.316590 35.534461 27.032579 -44.731213 -10.657803 0.043027 -0.477469 -11.161948 23.750612 -17.799344 -7.460996 -7.125000 0.000000 0.000000 -2.712218 11.227708 2.134740 -13.230300 -6.641901 1.643296 103.598340 -23.670299 -41.511895 -3.262939 11.581677 -0.069771 -1.694164 -0.206651 40.624609 -16.073987 -34.586411 8.363893 7.125000 0.000000 0.000000 21.690170 -63.104022 -9.767586
0.171206 17.202567 -0.901947 3.005241 11.261591 19.191059 -3.080468 -1.365566 0.333175 -16.552035 0.187575 -3.007718 -0.493070 6.703211 18.373323 2.790718 -16.040491 -7.235702 1.057318 -6.526633 -18.324522 -0.129983 2.483437 -4.492652 13.179470 2.704436 -46.018452 1.024365 -7.343207 16.683072 -0.437901 0.678392 -2.254740 -3.484230 11.430168 -33.756824 -1.593278 -3.086196 -7.577546 1.417801 -4.116355 -9.720136 0.075593 -1.960166 0.067999 -2.025449 -1.954028 -8.508817 4.283051 -2.841400 11.087871 0.259180 -1.171158 3.599295 12.926048 7.085041 -0.880377 -93.889081 -13.163662 35.458449 27.454056 -45.091304 -10.921983 0.042687 -0.467231 -11.273068 23.688573 -17.842182 -7.461580 -7.125000 0.000000 0.000000 -2.758023 11.178395 2.173637 -13.224196 -6.648185 1.643406 103.525966 -23.648671 -42.180704 -3.251336 11.500841 -0.064267 -1.690329 -0.182626 41.227324 -16.036366 -34.540983 8.334349 7.125000 0.000000 0.000000 21.695590 -63.060342 -9.747925
0.176600 17.181310 -0.781464 2.776919 10.961262 19.287338 -3.060976 -1.356255 0.345047 -16.407428 0.068619 -2.769281 -0.479193 6.730777 18.495069 2.736293 -15.994916 -6.701377 1.087199 -6.621042 -18.599510 -0.150838 2.450386 -4.478015 13.417013 3.117138 -46.217365 0.959251 -7.578748 17.313211 -0.442983 0.780280 -2.057759 -3.704039 11.752703 -34.866547 -1.203756 -2.909512 -7.704327 1.416228 -3.952639 -9.738745 -0.050095 -1.878937 0.028403 -2.041978 -1.924386 -8.458433 4.217573 -2.792623 11.020475 0.242100 -1.152521 3.554777 12.919217 7.076245 -0.878237 -93.921589 -13.015133 35.410782 27.799886 -45.369643 -11.135408 0.042846 -0.462673 -11.338262 23.717669 -17.943483 -7.515538 -7.125000 0.000000 0.000000 -2.747834 11.060581 2.172134 -13.225556 -6.647852 1.639443 103.497115 -23.618330 -42.984701 -3.228978 11.395101 -0.057600 -1.686814 -0.148882 42.020864 -16.128238 -34.457101 8.370306 7.125000 0.000000 0.000000 21.530916 -63.018226 -9.649281
